<svg width="129" height="128" viewBox="0 0 129 128" fill="none" xmlns="http://www.w3.org/2000/svg">
<path d="M55.5178 90.2903C65.1297 89.4406 63.5885 82.9298 64.8822 76.4736C73.8461 76.5503 76.8854 89.5663 77.2846 96.0648C76.2258 101.741 73.1059 113.332 58.956 113.344C41.2685 113.359 45.9059 91.1401 55.5178 90.2903Z" fill="white"/>
<path d="M83.7046 23.8456C102.691 15.4582 113.045 26.6604 123.212 35.7212C121.083 55.1186 103.242 61.7176 95.6714 56.1353C88.101 50.553 82.7229 48.0802 75.314 50.7347C67.9052 53.3893 65.3991 60.3084 63.7217 71.3699C53.2687 52.6446 64.7179 32.2329 83.7046 23.8456Z" fill="#82DC1F"/>
<path d="M55.1213 10.5968C68.2186 13.9842 70.7046 23.8839 72.6266 29.2753C67.329 33.4489 66.0573 34.7677 62.2769 41.4359C57.8737 34.3401 50.5919 34.9363 42.8724 39.0776C35.153 43.2188 17.6876 32.9193 23.018 22.3038C28.3484 11.6883 42.024 7.20944 55.1213 10.5968Z" fill="#74CE00"/>
<path fill-rule="evenodd" clip-rule="evenodd" d="M99.1961 19.6345C91.2727 18.7707 83.7526 20.4611 76.5257 24.7303L73.7096 26.394L72.9991 24.6256C64.8936 4.45012 37.5367 0.623948 23.5698 17.7124C20.4257 21.5592 20.2146 22.354 21.068 27.1316C23.2467 39.3292 36.1985 45.5929 46.8246 39.5878C52.0047 36.6603 57.2767 37.6234 60.1503 42.0223L60.649 42.7856L59.9228 44.6095C57.0107 51.9226 56.616 62.1218 58.95 69.7457C59.8928 72.8253 62.0148 74.0143 64.7215 72.9792C66.8063 72.1821 67.4264 70.5875 67.4691 65.9131C67.5845 53.3013 80.5566 46.912 89.9816 54.8244C102.769 65.5597 123.411 55.911 124.567 38.6581C124.818 34.9195 124.778 34.7272 123.391 33.0015C117.444 25.6049 108.466 20.6452 99.1961 19.6345ZM108.716 26.6419C113.038 28.6718 118.391 32.9141 120.171 35.7206C121.579 37.9387 119.481 44.7872 116.173 48.7768C110.159 56.0282 99.2465 57.2391 92.4279 51.4116C84.1331 44.3221 71.9786 46.3301 66.077 55.7649C63.9179 59.2164 63.2887 61.8254 63.3354 67.1315C63.3636 70.3412 62.9006 69.6035 62.0736 65.1219C60.6576 57.4493 61.5787 50.0226 64.4273 46.1406C73.6663 33.5503 87.4408 30.1445 103.184 36.5573C104.794 37.2132 105.239 37.3317 105.465 37.164C105.926 36.822 105.68 36.5132 104.167 35.5281C92.0961 27.6755 73.6951 31.0755 65.5307 42.667C64.4584 44.1894 64.5311 43.9039 65.8147 41.5519C74.379 25.8568 93.1544 19.3317 108.716 26.6419ZM58.3895 14.1439C63.5147 17.1032 68.1347 22.6483 69.8525 27.9024L70.3081 29.296L69.7494 29.7796C69.4421 30.0456 68.7164 30.7747 68.1368 31.3996L67.0829 32.5358L66.8027 31.8299C62.648 21.3591 50.8283 16.3011 41.1696 20.8609C37.83 22.4375 38.4209 23.0018 42.48 22.1129C54.0595 19.5771 60.9933 22.4995 65.5241 31.8254L66.3105 33.4439L65.013 35.2103C64.2994 36.1819 63.5184 37.3272 63.2775 37.7553L62.8395 38.5336L61.7483 37.457C57.4208 33.1872 51.32 32.4494 45.7102 35.5173C36.0777 40.7854 25.4953 35.2844 24.8214 24.6591C24.7007 22.7586 24.7863 22.5729 26.9397 20.0628C34.8142 10.8847 48.3373 8.33958 58.3895 14.1439ZM65.9159 74.2293C63.6767 74.7274 62.5387 76.5064 62.6644 79.3116C62.8902 84.3485 61.152 87.1885 57.7793 87.2936C48.1645 87.593 41.6649 96.879 44.6137 106.104C48.6276 118.661 67.5803 118.561 75.7304 105.94C81.2829 97.3413 80.3236 87.3682 73.1255 78.8592C69.4907 74.5626 68.1853 73.7245 65.9159 74.2293ZM68.1749 79.6142C69.7414 81.2449 71.6451 83.6435 72.6754 85.285C79.8034 96.6396 71.0306 111.879 57.7391 111.231C44.4864 110.585 44.7613 92.2653 58.0353 91.4981C60.6171 91.3489 62.7998 90.2013 64.5491 88.0732C65.707 86.6644 66.9799 82.0082 66.8032 79.8284C66.7423 79.0771 66.6996 78.4355 66.7083 78.4028C66.7562 78.2222 67.1503 78.5476 68.1749 79.6142Z" fill="black"/>
</svg>
