<svg width="386" height="340" viewBox="0 0 386 340" fill="none" xmlns="http://www.w3.org/2000/svg">
<path fill-rule="evenodd" clip-rule="evenodd" d="M245.762 0.885622C227.505 3.65795 211.669 11.9097 198.022 25.7613L192.704 31.159L190.063 27.6216C159.926 -12.7372 96.3918 -5.05436 75.267 41.5033C70.5115 51.984 70.511 53.8889 75.2602 64.0792C87.3853 90.0957 120.11 96.427 140.338 76.6696C150.199 67.0382 162.577 66.0629 171.625 74.2053L173.195 75.618L172.652 80.1332C170.476 98.2371 175.651 121.308 185.407 136.992C189.347 143.327 194.806 144.729 200.252 140.803C204.447 137.78 204.888 133.841 202.207 123.35C194.973 95.0434 220.226 73.0323 246.033 85.1501C281.046 101.591 321.538 67.726 313.878 28.4097C312.218 19.8901 312.014 19.4832 307.882 16.4435C290.171 3.41463 267.121 -2.35779 245.762 0.885622ZM271.244 10.9204C282.127 12.8985 296.634 19.2178 302.288 24.4439C306.758 28.5743 306.13 45.154 301.09 56.0522C291.932 75.8604 268.214 85.0533 249.483 76.0555C226.697 65.1092 200.672 76.8246 193.061 101.455C190.276 110.465 190.417 116.681 193.674 128.534C195.644 135.703 194.169 134.327 189.655 124.783C181.926 108.445 179.576 91.2697 183.649 80.8858C196.859 47.208 225.681 31.4003 264.745 36.4076C268.74 36.9198 269.806 36.9209 270.213 36.4111C271.042 35.3716 270.309 34.8258 266.334 33.5194C234.639 23.1069 195.453 41.6498 184.056 72.4529C182.56 76.4985 182.553 75.8162 184.03 69.7874C193.884 29.5586 232.052 3.79642 271.244 10.9204ZM151.12 12.8308C164.355 16.4124 177.995 26.0839 184.963 36.8275L186.811 39.6771L185.848 41.0919C185.317 41.87 184.125 43.9334 183.199 45.6768L181.514 48.847L180.467 47.4327C164.943 26.4562 135.47 22.1522 116.549 38.0988C110.007 43.6124 111.666 44.5249 120.228 40.1236C144.652 27.5679 161.915 29.9925 177.601 48.1822L180.324 51.3389L178.467 56.0648C177.447 58.664 176.378 61.6922 176.093 62.7939L175.574 64.7966L172.491 63.0342C160.264 56.0447 146.164 58.0163 135.424 68.2176C116.983 85.7346 90.0178 79.7038 82.1966 56.3136C80.7972 52.13 80.8787 51.6635 84.2097 44.7642C96.3908 19.5369 125.162 5.80568 151.12 12.8308ZM326.032 61.2788C313.211 66.4928 294.106 97.2202 283.584 129.549C273.044 161.933 269.864 204.004 275.156 241.041L275.782 245.422L271.882 248.056C266.322 251.811 259.369 259.185 256.171 264.718L253.583 269.197L253.005 267.463C248.376 253.556 241.036 252.825 229.659 265.138C226.593 268.456 221.587 273.37 218.536 276.058C213.057 280.884 205.176 289.007 201.304 293.819C199.796 295.692 199.156 296.168 198.673 295.774C198.321 295.488 195.429 293.113 192.245 290.495C189.061 287.878 183.558 283.627 180.015 281.049C175.502 277.765 173.021 275.583 171.728 273.763C164.197 263.161 148.57 253.074 140.378 253.526C137.604 253.679 136.965 253.288 130.599 247.549C122.91 240.619 115.284 231.679 109.439 222.743L107.555 219.864L108.255 216.974C108.639 215.384 109.304 211.826 109.732 209.067C113.124 187.156 114.008 182.26 115.526 176.959C116.475 173.648 118.026 168.23 118.975 164.918C123.051 150.693 121.316 138.17 113.704 126.844C107.516 117.638 92.4095 100.119 89.1832 98.4082C83.7075 95.5029 77.3437 101.146 70.7884 114.72L68.6986 119.048L65.9263 114.387C52.9415 92.558 34.9678 75.9065 24.3699 75.8874C18.7678 75.8774 8.78934 80.502 7.49458 83.7083C7.14629 84.5712 6.08983 88.7477 5.14722 92.9895C-23.052 219.863 68.1304 339.934 192.728 340C318.31 340.066 409.763 219.081 380.522 91.5602C379.299 86.2282 378.876 85.0347 378.364 85.4762C378.014 85.7782 377.728 86.2613 377.728 86.5503C377.728 89.1716 358.139 120.883 357.153 119.857C357.049 119.75 356.658 117.848 356.283 115.632C353.629 99.9343 343.223 69.3851 338.787 64.2679C335.463 60.4335 330.798 59.3403 326.032 61.2788ZM332.573 71.9808C338.18 81.9769 347.52 114.738 348.109 126.473L348.351 131.305L342.251 138.831C331.786 151.74 324.148 162.69 318.834 172.404C316.169 177.275 316.168 177.266 318.429 168.413C322.482 152.55 326.027 130.766 324.769 129.458C323.84 128.492 323.319 129.482 322.74 133.312C321.34 142.577 316.904 160.794 312.294 176.206C306.666 195.024 298.854 217.049 292.009 233.399C289.181 240.154 289.168 240.174 287.114 240.855C285.981 241.231 284.941 241.42 284.802 241.275C283.104 239.51 281.428 189.014 282.837 182.101L283.221 180.22H290.194C294.089 180.22 297.167 180.017 297.167 179.761C297.167 178.885 292.936 175.435 288.551 172.736C286.126 171.243 284.142 169.997 284.142 169.966C284.142 169.027 286.925 153.885 287.8 150.063L289.018 144.74L294.178 145.931C297.016 146.586 300.409 147.269 301.718 147.447L304.097 147.772L302.967 146.061C302.347 145.119 299.631 142.085 296.932 139.316L292.026 134.283L293.599 129.403C295.493 123.527 301.017 109.984 301.52 109.984C301.717 109.984 303.803 110.876 306.156 111.967C308.508 113.058 310.506 113.734 310.595 113.468C310.849 112.712 308.944 108.985 306.821 106.086C304.394 102.77 304.179 103.802 309.054 95.37C316.211 82.9929 323.742 73.4282 328.282 70.9473C330.944 69.4924 331.213 69.5577 332.573 71.9808ZM27.7467 86.592C33.9716 89.6402 44.5024 99.8726 51.0823 109.267L52.1614 110.807L50.2405 114.534C48.3317 118.238 46.1889 124.506 45.5531 128.243C45.157 130.57 44.5699 130.855 52.4929 124.876C55.7558 122.414 58.4872 120.483 58.5629 120.585C60.1828 122.764 66.0174 134.521 67.5191 138.632L68.4724 141.241L66.0642 143.981C63.2682 147.163 57.189 156.072 57.5547 156.452C57.6912 156.594 58.656 156.258 59.698 155.705C60.7404 155.152 63.7699 153.696 66.4304 152.469L71.2679 150.239L73.7595 159.335C76.6712 169.962 76.5955 169.036 74.7084 170.939C71.7812 173.89 65.8944 183.23 66.962 183.23C67.2109 183.23 69.991 182.12 73.1391 180.764C79.3814 178.075 79.3466 178.079 79.8314 180.09C80.0148 180.851 81.2381 184.543 82.5498 188.294L84.9338 195.113L82.7808 199.331C80.7755 203.259 78.1575 211.22 78.1575 213.391C78.1575 214.134 79.3833 213.413 83.7919 210.078L89.4264 205.817L92.6305 212.208C102.16 231.217 116.054 248.926 129.601 259.331L132.563 261.606L130.533 266.19C129.416 268.712 127.789 272.634 126.916 274.906L125.33 279.038L120.498 272.398C111.99 260.705 105.74 253.606 96.0063 244.58C92.4245 241.259 88.8427 237.779 88.0467 236.846C87.2508 235.914 85.297 233.592 83.7051 231.689C77.4701 224.23 70.4005 223.287 66.1771 229.351L64.7806 231.356L62.1163 227.486C45.5029 203.354 33.7926 176.084 28.2609 148.645C27.1813 143.292 26.1422 141.345 26.4336 145.223C28.7824 176.473 41.8936 214.202 58.8099 238.389C61.0994 241.663 61.1587 241.835 60.7342 243.979C60.0357 247.508 59.6965 261.827 60.1944 266.761C60.4452 269.244 60.5943 271.349 60.5258 271.437C60.4573 271.526 58.4095 269.268 55.9748 266.42C16.0837 219.764 0.696601 156.67 14.2752 95.4347C15.9573 87.8467 15.6307 88.2731 21.2343 86.3602C24.6719 85.1872 24.8943 85.1953 27.7467 86.592ZM93.2938 116.261C114.139 141.492 115.133 145.153 107.806 169.684C105.077 178.821 103.936 184.029 102.53 193.766C102.072 196.939 101.425 201.228 101.092 203.298L100.487 207.06L99.4868 204.803C97.4443 200.191 94.5225 180.098 92.6295 157.644C90.5875 133.419 90.711 134.354 89.6888 135.417C88.4297 136.727 89.4587 173.282 91.0062 182.227C91.8934 187.352 87.5764 173.898 82.7929 156.629C81.0717 150.415 78.7596 142.626 77.6549 139.321C74.924 131.149 74.9341 131.289 76.6929 125.592C78.9076 118.419 84.6559 108.323 86.3583 108.617C86.7563 108.686 89.8774 112.126 93.2938 116.261ZM375.617 119.565C381.723 176.901 361.622 234.466 320.933 276.168C313.633 283.649 314.585 283.263 312.156 279.734L310.207 276.905L311.526 275.276C323.091 260.998 326.048 256.984 332.031 247.446C346.981 223.61 360.021 190.945 362.397 171.38C363.367 163.394 361.583 163.318 359.646 171.261C352.651 199.926 323.896 258.032 310.088 271.403L308.921 272.533L306.819 264.881C302.939 250.768 304.589 234.351 312.185 211.482C320.841 185.42 330.259 168.902 351.41 142.677C361.934 129.63 368.061 121.678 371.698 116.344C373.29 114.01 374.65 112.154 374.72 112.22C374.79 112.285 375.193 115.591 375.617 119.565ZM203.669 142.893C198.951 145.338 197.459 149.997 199.407 156.204C202.905 167.347 200.7 174.739 193.21 176.977C171.857 183.359 162.819 208.011 174.902 226.914C191.35 252.645 233.733 241.163 244.486 208.064C251.811 185.513 243.738 163.753 222.564 148.977C211.873 141.516 208.451 140.415 203.669 142.893ZM211.927 153.608C216.404 156.329 222.092 160.568 225.374 163.632C248.081 184.821 237.489 224.153 207.34 230.597C177.279 237.023 167.012 195.842 196.281 186.239C201.974 184.371 206.18 180.505 208.833 174.701C210.589 170.859 210.673 159.678 208.982 154.902C208.4 153.256 207.923 151.845 207.923 151.767C207.923 151.334 208.999 151.828 211.927 153.608ZM316.463 176.959C316.463 177.097 316.355 177.21 316.222 177.21C316.089 177.21 315.981 177.097 315.981 176.959C315.981 176.821 316.089 176.708 316.222 176.708C316.355 176.708 316.463 176.821 316.463 176.959ZM297.65 230.138C297.65 230.276 297.541 230.389 297.408 230.389C297.276 230.389 297.167 230.276 297.167 230.138C297.167 230 297.276 229.887 297.408 229.887C297.541 229.887 297.65 230 297.65 230.138ZM296.587 235.563L296.027 239.921H294.467H292.907L294.9 235.431C295.997 232.962 296.952 231.001 297.021 231.073C297.091 231.146 296.896 233.166 296.587 235.563ZM78.2106 240.039C81.8614 244.217 86.2604 248.746 90.5726 252.764C92.0477 254.139 92.108 254.33 91.6695 256.226C91.0873 258.743 91.0424 264.354 91.6015 264.714C91.8326 264.862 93.041 263.634 94.287 261.984C97.0922 258.271 96.7015 258.217 100.79 262.873C104.791 267.43 104.611 266.489 102.577 272.21C99.3127 281.386 99.5177 281.796 105.117 277.291C107.342 275.5 109.334 274.036 109.543 274.036C109.988 274.036 114.914 280.606 118.65 286.182L121.243 290.052L119.045 296.216C117.837 299.607 116.369 304.074 115.783 306.144C115.198 308.213 114.639 309.994 114.542 310.1C112.833 311.983 89.5069 285.743 82.9815 274.597C80.763 270.808 79.1223 268.992 79.1223 270.325C79.1223 274.19 90.3232 291.851 98.5042 300.886L103.001 305.853L100.589 304.425C93.3083 300.116 80.0606 290.265 73.4512 284.246C68.4782 279.717 67.8732 244.248 72.6403 236.682C73.758 234.908 73.6953 234.87 78.2106 240.039ZM293.773 254.327C294.61 256.731 295.835 261.529 296.497 264.988C297.158 268.446 298.451 273.195 299.371 275.541C301.262 280.36 304.106 290.877 303.703 291.556C303.069 292.622 287.344 303.635 286.455 303.635C286.313 303.635 286.371 302.665 286.584 301.48C288.237 292.273 288.26 276.042 286.619 276.042C285.928 276.042 285.673 277.225 284.927 283.89C284.142 290.903 281.592 305.66 280.99 306.673C280.008 308.327 251.683 321.472 251.08 320.554C250.965 320.38 253.482 309.081 255.129 302.381C255.943 299.07 257.348 292.521 258.253 287.827C262.086 267.941 271.032 256.61 287.202 251.163C292.261 249.458 292.043 249.353 293.773 254.327ZM150.025 267.072C163.806 274.784 170.863 286.659 172.249 304.469C172.869 312.441 173.939 321.063 174.895 325.787C175.293 327.758 175.561 329.426 175.49 329.494C174.947 330.01 149.968 325.592 148.652 324.747C147.729 324.154 146.548 312.334 146.242 300.625C145.982 290.65 145.824 288.835 145.215 288.835C143.759 288.835 143.168 294.552 143.103 309.279C143.068 316.936 142.924 323.201 142.781 323.201C142.396 323.201 128.994 318.471 125.846 317.224L123.123 316.145L123.841 312.775C125.278 306.019 134.698 280.011 139.55 269.404L142.242 263.517L144.319 264.279C145.461 264.698 148.029 265.955 150.025 267.072ZM243.512 268.893C248.636 281.422 245.982 307.572 238.168 321.53L236.155 325.127L231.325 326.185C228.669 326.765 225.629 327.387 224.57 327.564L222.645 327.887L226.217 323.678C230.201 318.983 233.156 314.488 233.995 311.843C234.671 309.713 234.233 309.046 233.182 310.607C228.414 317.686 217.946 328.525 215.451 328.966C211.444 329.674 202.517 330.224 195.015 330.224L186.69 330.225L188.261 327.691C190.025 324.849 189.487 324.931 196.286 326.456C200.808 327.47 200.785 327.573 197.052 323.023L193.893 319.173L198.375 313.112C200.841 309.778 203.117 306.707 203.434 306.288C203.928 305.635 204.75 306.153 209.146 309.886C211.971 312.284 214.406 314.118 214.557 313.961C215.429 313.054 212.308 303.85 210.115 300.86L208.961 299.287L214.71 293.064L220.458 286.841L225.03 291.575C227.543 294.179 229.742 296.162 229.914 295.982C230.404 295.473 228.8 288.77 227.427 285.586L226.188 282.716L233.819 274.652C242.457 265.523 242.197 265.677 243.512 268.893ZM187.301 298.966C190.418 301.539 192.969 303.777 192.969 303.94C192.969 304.342 184.201 316.674 183.674 317.013C182.952 317.477 182.889 317.108 181.863 306.367C181.311 300.588 180.73 295.317 180.572 294.655C180.205 293.114 180.228 293.129 187.301 298.966Z" fill="#E5ECF0"/>
</svg>
